<?xml version="1.0" encoding="UTF-8" standalone="no"?>
<svg
   height="120"
   width="149.46794"
   viewBox="0 0 149.46794 120"
   version="1.1"
   id="svg1"
   sodipodi:docname="logo-small.svg"
   inkscape:version="1.3.2 (091e20ef0f, 2023-11-25)"
   xmlns:inkscape="http://www.inkscape.org/namespaces/inkscape"
   xmlns:sodipodi="http://sodipodi.sourceforge.net/DTD/sodipodi-0.dtd"
   xmlns="http://www.w3.org/2000/svg"
   xmlns:svg="http://www.w3.org/2000/svg"
   xmlns:rdf="http://www.w3.org/1999/02/22-rdf-syntax-ns#"
   xmlns:cc="http://creativecommons.org/ns#"
   xmlns:dc="http://purl.org/dc/elements/1.1/">
  <title
     id="title1">Forum Italia logo small</title>
  <defs
     id="defs1" />
  <sodipodi:namedview
     id="namedview1"
     pagecolor="#505050"
     bordercolor="#eeeeee"
     borderopacity="1"
     inkscape:showpageshadow="0"
     inkscape:pageopacity="0"
     inkscape:pagecheckerboard="0"
     inkscape:deskcolor="#505050"
     showgrid="true"
     inkscape:zoom="4.8051199"
     inkscape:cx="48.698056"
     inkscape:cy="55.669787"
     inkscape:window-width="1920"
     inkscape:window-height="1011"
     inkscape:window-x="0"
     inkscape:window-y="0"
     inkscape:window-maximized="1"
     inkscape:current-layer="svg1">
    <inkscape:grid
       id="grid1"
       units="px"
       originx="-2.1999827e-09"
       originy="0"
       spacingx="4"
       spacingy="4"
       empcolor="#0099e5"
       empopacity="0.30196078"
       color="#0099e5"
       opacity="0.14901961"
       empspacing="4"
       dotted="false"
       gridanglex="30"
       gridanglez="30"
       visible="true" />
  </sodipodi:namedview>
  <g
     fill="#ffffff"
     id="g1"
     transform="matrix(1.6371078,0,0,1.6371078,0.00163711,0)">
    <path
       d="M 31.799,71.9 V 15.7 h 15.1 V 72 h -15.1 z m 59.3,-43.4 h -13.8 v 23.1 c 0,2.3 0.1,3.8 0.2,4.8 0.1,0.9 0.5,1.7 1.2,2.4 0.7,0.7 1.8,1 3.3,1 l 8.6,-0.2 0.7,12 c -5,1.1 -8.9,1.7 -11.5,1.7 -6.8,0 -11.4,-1.5 -13.8,-4.6 -2.5,-3 -3.7,-8.6 -3.7,-16.8 V 0 h 15.1 v 15.6 h 13.8 v 12.9 z m -82,4.3 c -2.6,0 -4.8,-0.9 -6.5,-2.7 -1.7,-1.8 -2.6,-4 -2.6,-6.6 0,-2.6 0.9,-4.8 2.5,-6.6 1.7,-1.8 3.9,-2.6 6.5,-2.6 2.6,0 4.8,0.9 6.5,2.7 1.7,1.8 2.5,4 2.5,6.7 0,2.7 -0.8,4.8 -2.5,6.6 -1.6,1.6 -3.7,2.5 -6.4,2.5 z"
       id="path1" />
  </g>
  <metadata
     id="metadata1">
    <rdf:RDF>
      <cc:Work
         rdf:about="">
        <dc:title>Forum Italia logo small</dc:title>
      </cc:Work>
    </rdf:RDF>
  </metadata>
</svg>
